<?xml version="1.0" encoding="utf-8"?>
<!-- Generator: Adobe Illustrator 23.0.4, SVG Export Plug-In . SVG Version: 6.00 Build 0)  -->
<svg version="1.1" id="Layer_1" xmlns="http://www.w3.org/2000/svg" xmlns:xlink="http://www.w3.org/1999/xlink" x="0px" y="0px"
	 viewBox="0 0 120 35" style="enable-background:new 0 0 120 35;" xml:space="preserve">
<style type="text/css">
	.st0{fill:#FFFFFF;}
	.st1{fill:#00FFFF;}
</style>
<g>
	<g>
		<path class="st0" d="M19.49,9.78v15.64c0,0.94-0.06,1.78-0.16,2.52c-0.11,0.74-0.26,1.4-0.46,1.96c-0.26,0.72-0.67,1.39-1.23,2.01
			c-0.56,0.62-1.23,1.16-2.02,1.62c-0.79,0.46-1.68,0.82-2.67,1.08c-1,0.26-2.07,0.39-3.23,0.39C8.4,35,7.2,34.84,6.1,34.51
			c-1.09-0.33-2.05-0.78-2.87-1.36c-0.82-0.58-1.49-1.25-2.02-2.03c-0.52-0.77-0.87-1.62-1.05-2.54h6.69
			c0.42,1.11,1.36,1.67,2.82,1.67c1.25,0,2.2-0.35,2.87-1.05c0.67-0.7,1-1.67,1-2.91v-1.6c-0.44,0.41-0.86,0.76-1.26,1.03
			c-0.41,0.27-0.82,0.5-1.23,0.67c-0.42,0.17-0.85,0.3-1.31,0.38c-0.46,0.08-0.96,0.11-1.51,0.11c-1.2,0-2.31-0.21-3.31-0.62
			c-1.01-0.41-1.88-0.99-2.61-1.73c-0.73-0.74-1.3-1.63-1.71-2.67C0.2,20.83,0,19.68,0,18.42c0-1.29,0.22-2.48,0.66-3.58
			c0.44-1.1,1.03-2.06,1.79-2.88c0.75-0.82,1.65-1.46,2.69-1.93c1.04-0.47,2.17-0.7,3.4-0.7c1.99,0,3.66,0.74,5.02,2.22V9.78H19.49z
			 M6.17,18.09c0,0.55,0.1,1.05,0.3,1.52c0.2,0.47,0.46,0.88,0.8,1.23c0.34,0.35,0.74,0.62,1.21,0.82c0.47,0.2,0.98,0.29,1.53,0.29
			c0.53,0,1.02-0.1,1.49-0.29c0.47-0.2,0.87-0.47,1.21-0.82c0.34-0.35,0.61-0.76,0.82-1.23c0.21-0.47,0.31-0.96,0.31-1.49
			c0-0.54-0.1-1.05-0.31-1.5c-0.21-0.46-0.49-0.86-0.84-1.21c-0.35-0.35-0.76-0.62-1.23-0.82s-0.96-0.29-1.46-0.29
			c-0.53,0-1.02,0.1-1.48,0.31c-0.46,0.21-0.86,0.48-1.21,0.82c-0.35,0.34-0.63,0.74-0.84,1.19C6.27,17.07,6.17,17.56,6.17,18.09z"
			/>
		<path class="st1" d="M23.13,3.34c0-0.46,0.09-0.89,0.26-1.29c0.17-0.4,0.42-0.76,0.72-1.06s0.66-0.55,1.07-0.72
			C25.59,0.09,26.02,0,26.48,0c0.46,0,0.89,0.09,1.3,0.26c0.4,0.17,0.76,0.41,1.07,0.72c0.31,0.31,0.55,0.66,0.72,1.06
			c0.17,0.4,0.26,0.83,0.26,1.29c0,0.46-0.09,0.89-0.26,1.29c-0.18,0.4-0.42,0.76-0.72,1.06C28.54,6,28.18,6.24,27.78,6.41
			c-0.4,0.17-0.84,0.26-1.3,0.26c-0.46,0-0.89-0.09-1.3-0.26c-0.4-0.17-0.76-0.41-1.07-0.72c-0.31-0.31-0.55-0.66-0.72-1.06
			C23.22,4.22,23.13,3.79,23.13,3.34z"/>
		<path class="st0" d="M52.37,9.78v15.64c0,0.94-0.06,1.78-0.16,2.52c-0.11,0.74-0.26,1.4-0.46,1.96c-0.26,0.72-0.67,1.39-1.23,2.01
			c-0.56,0.62-1.23,1.16-2.02,1.62c-0.79,0.46-1.68,0.82-2.67,1.08c-1,0.26-2.07,0.39-3.23,0.39c-1.31,0-2.52-0.16-3.61-0.49
			c-1.09-0.33-2.05-0.78-2.87-1.36c-0.82-0.58-1.49-1.25-2.02-2.03c-0.52-0.77-0.87-1.62-1.05-2.54h6.69
			c0.42,1.11,1.36,1.67,2.82,1.67c1.25,0,2.2-0.35,2.87-1.05c0.67-0.7,1-1.67,1-2.91v-1.6c-0.44,0.41-0.86,0.76-1.26,1.03
			c-0.41,0.27-0.82,0.5-1.23,0.67c-0.42,0.17-0.85,0.3-1.31,0.38c-0.46,0.08-0.96,0.11-1.51,0.11c-1.2,0-2.31-0.21-3.31-0.62
			c-1.01-0.41-1.88-0.99-2.61-1.73c-0.73-0.74-1.3-1.63-1.71-2.67c-0.41-1.04-0.61-2.19-0.61-3.45c0-1.29,0.22-2.48,0.66-3.58
			c0.44-1.1,1.03-2.06,1.79-2.88c0.75-0.82,1.65-1.46,2.69-1.93c1.04-0.47,2.17-0.7,3.4-0.7c1.99,0,3.66,0.74,5.02,2.22V9.78H52.37z
			 M39.05,18.09c0,0.55,0.1,1.05,0.3,1.52c0.2,0.47,0.46,0.88,0.8,1.23c0.34,0.35,0.74,0.62,1.21,0.82c0.47,0.2,0.98,0.29,1.53,0.29
			c0.53,0,1.02-0.1,1.49-0.29c0.47-0.2,0.87-0.47,1.21-0.82s0.61-0.76,0.82-1.23c0.21-0.47,0.31-0.96,0.31-1.49
			c0-0.54-0.1-1.05-0.31-1.5c-0.21-0.46-0.49-0.86-0.84-1.21c-0.35-0.35-0.76-0.62-1.23-0.82s-0.96-0.29-1.46-0.29
			c-0.53,0-1.02,0.1-1.48,0.31c-0.46,0.21-0.86,0.48-1.21,0.82c-0.35,0.34-0.63,0.74-0.84,1.19C39.15,17.07,39.05,17.56,39.05,18.09
			z"/>
		<path class="st0" d="M67.56,14.1c-1.09-0.57-2.17-0.85-3.22-0.85c-0.55,0-0.99,0.11-1.33,0.33c-0.34,0.22-0.51,0.51-0.51,0.88
			c0,0.2,0.03,0.35,0.08,0.47c0.05,0.12,0.17,0.23,0.36,0.34c0.19,0.11,0.46,0.21,0.82,0.29c0.36,0.09,0.84,0.2,1.43,0.33
			c1.64,0.33,2.87,0.91,3.68,1.75c0.81,0.84,1.21,1.91,1.21,3.22c0,0.98-0.2,1.86-0.59,2.65c-0.39,0.79-0.94,1.45-1.64,1.98
			c-0.7,0.53-1.54,0.95-2.53,1.24c-0.98,0.29-2.07,0.44-3.25,0.44c-2.28,0-4.52-0.64-6.73-1.93l2.17-4.19
			c1.66,1.13,3.24,1.7,4.73,1.7c0.55,0,1-0.12,1.35-0.36c0.35-0.24,0.53-0.55,0.53-0.92c0-0.22-0.03-0.4-0.08-0.54
			c-0.06-0.14-0.17-0.27-0.34-0.39c-0.18-0.12-0.43-0.23-0.77-0.33c-0.34-0.1-0.78-0.2-1.33-0.31c-1.84-0.37-3.12-0.92-3.86-1.65
			c-0.73-0.73-1.1-1.74-1.1-3.03c0-0.94,0.17-1.78,0.53-2.54c0.35-0.75,0.85-1.39,1.51-1.91c0.66-0.52,1.45-0.93,2.38-1.21
			c0.93-0.28,1.96-0.42,3.1-0.42c1.86,0,3.66,0.36,5.41,1.08L67.56,14.1z"/>
		<path class="st0" d="M80.2,14.72v11.84h-5.94V14.72h-1.97V9.78h1.97V4.74h5.94v5.04h3.38v4.94H80.2z"/>
		<path class="st0" d="M91.48,19.17c0,2.55,1.2,3.83,3.61,3.83c1.29,0,2.26-0.52,2.92-1.57h5.74c-1.16,3.84-4.06,5.76-8.7,5.76
			c-1.42,0-2.72-0.21-3.91-0.64c-1.18-0.42-2.19-1.03-3.04-1.82c-0.84-0.78-1.49-1.72-1.95-2.81c-0.46-1.09-0.69-2.31-0.69-3.66
			c0-1.4,0.22-2.65,0.66-3.78c0.44-1.12,1.06-2.08,1.87-2.86c0.81-0.78,1.79-1.39,2.94-1.82c1.15-0.42,2.44-0.64,3.89-0.64
			c1.42,0,2.7,0.21,3.84,0.64c1.14,0.43,2.1,1.04,2.89,1.85c0.79,0.81,1.39,1.79,1.81,2.96c0.42,1.17,0.62,2.48,0.62,3.94v0.62
			H91.48z M98.44,15.73c-0.2-0.83-0.6-1.49-1.21-2c-0.61-0.5-1.36-0.75-2.23-0.75c-0.92,0-1.67,0.24-2.25,0.72
			c-0.58,0.48-0.95,1.16-1.1,2.03H98.44z"/>
		<path class="st0" d="M107.37,9.78h5.94v2.75c0.63-1,1.41-1.77,2.33-2.31c0.92-0.53,1.99-0.8,3.22-0.8c0.15,0,0.32,0,0.51,0
			c0.19,0,0.4,0.02,0.64,0.07v5.66c-0.79-0.39-1.64-0.59-2.56-0.59c-1.38,0-2.41,0.41-3.1,1.23c-0.69,0.82-1.03,2.01-1.03,3.58v7.2
			h-5.94V9.78z"/>
	</g>
	<rect x="23.31" y="9.94" class="st0" width="5.94" height="16.78"/>
</g>
</svg>
